<?xml version="1.0" encoding="utf-8"?>
<!-- Generator: Adobe Illustrator 21.0.0, SVG Export Plug-In . SVG Version: 6.00 Build 0)  -->
<svg version="1.1" id="Layer_1" xmlns="http://www.w3.org/2000/svg" xmlns:xlink="http://www.w3.org/1999/xlink" width="52px" height="52px"
	 viewBox="0 0 52 52" enable-background="new 0 0 52 52" xml:space="preserve">
<path fill="#FFFFFF" d="M48.9,23.5L28.5,3.1c-1.4-1.4-3.7-1.4-5.1,0L3.1,23.5c-1.4,1.4-1.4,3.7,0,5.1L23.5,49c1.4,1.4,3.7,1.4,5.1,0
	L49,28.6C50.3,27.1,50.4,24.9,48.9,23.5z M26,39.6c-1.7,0-3-1.3-3-3c0-1.7,1.3-3,3-3s3,1.3,3,3C29,38.3,27.7,39.6,26,39.6z M29,30.6
	c0,0.6-0.4,1-1,1h-4c-0.6,0-1-0.4-1-1v-13c0-0.6,0.4-1,1-1h4c0.6,0,1,0.4,1,1V30.6z"/>
</svg>
