<?xml version="1.0" encoding="utf-8"?>
<svg width="100" height="100" viewBox="0 0 100 100" xmlns="http://www.w3.org/2000/svg" xmlns:xlink="http://www.w3.org/1999/xlink">
  <g fill="none" fill-rule="evenodd">
    <g transform="translate(-23 18)">
      <path fill="#FFF" d="M67.0748417,81.2060471 C72.2241583,75.8212235 79.4087833,72.4857176 87.3501083,72.4857176 C97.9157333,72.4857176 107.139692,78.3828706 112.039458,87.1206353 C116.293883,85.2215294 121.017892,84.1566353 125.994133,84.1566353 C145.032383,84.1566353 160.473625,99.7209882 160.473625,118.925294 C160.473625,138.141671 145.032383,153.702 125.994133,153.702 C123.652925,153.702 121.3949,153.467294 119.191883,153.027388 C114.879767,160.728424 106.625833,165.938894 97.1952583,165.938894 C93.2373417,165.938894 89.4847,165.030918 86.1573667,163.397365 C81.776825,173.705647 71.577475,180.921176 59.6822583,180.921176 C47.2973333,180.921176 36.7572,173.079318 32.687925,162.096424 C30.9129,162.474635 29.0949417,162.674471 27.2152667,162.674471 C12.4555917,162.674471 0.5,150.613271 0.5,135.708776 C0.5,125.730424 5.87069167,117.004729 13.8401917,112.345482 C12.2060417,108.570071 11.2963917,104.394988 11.2963917,100.001294 C11.2963917,82.8691059 25.2027667,69 42.3707333,69 C52.434575,69 61.3915417,73.7692235 67.0748417,81.2060471"/>
    </g>
    <path fill="#FFF" fill-rule="nonzero" d="M61,25.3 C58.6,11 46.1,-3.55271368e-15 31,-3.55271368e-15 C15.9,-3.55271368e-15 3.4,11 1,25.3 C0.8,26.2 1.9,26.9 2.6,26.3 C4.1,25 6,24.3 8.2,24.3 C11,24.3 13.4,25.6 15,27.6 C15.4,28.1 16.2,28.1 16.6,27.6 C18.2,25.6 20.6,24.3 23.4,24.3 C26.2,24.3 28.6,25.6 30.2,27.6 C30.6,28.1 31.4,28.1 31.8,27.6 C33.4,25.6 35.8,24.3 38.6,24.3 C41.4,24.3 43.8,25.6 45.4,27.6 C45.8,28.1 46.6,28.1 47,27.6 C48.6,25.6 51,24.3 53.8,24.3 C55.9,24.3 57.9,25.1 59.4,26.3 C60.1,26.9 61.1,26.3 61,25.3 Z M43,48 C41.3,48 40,49.3 40,51 C40,52.7 38.7,54 37,54 C35.3,54 34,52.7 34,51 L34,37 C34,35.3 32.7,34 31,34 C29.3,34 28,35.3 28,37 L28,51 C28,56 32,60 37,60 C42,60 46,56 46,51 C46,49.3 44.7,48 43,48 Z" transform="translate(33 21)"/>
  </g>
</svg>
