<?xml version="1.0" encoding="utf-8"?>
<svg width="100" height="100" viewBox="0 0 100 100" xmlns="http://www.w3.org/2000/svg" xmlns:xlink="http://www.w3.org/1999/xlink">
  <g fill="#FFF" fill-rule="evenodd" transform="translate(-23 28)">
    <path fill-rule="nonzero" d="M64.8,0 L7.2,0 C3.24,0 0,3.24 0,7.2 L0,45.6 C0,49.56 3.24,52.8 7.2,52.8 L64.8,52.8 C68.76,52.8 72,49.56 72,45.6 L72,7.2 C72,3.24 68.76,0 64.8,0 Z M36,50.4 C33.96,50.4 32.4,48.84 32.4,46.8 C32.4,44.76 33.96,43.2 36,43.2 C38.04,43.2 39.6,44.76 39.6,46.8 C39.6,48.84 38.04,50.4 36,50.4 Z M64.8,38.4 C64.8,39.72 63.72,40.8 62.4,40.8 L9.6,40.8 C8.28,40.8 7.2,39.72 7.2,38.4 L7.2,9.6 C7.2,8.28 8.28,7.2 9.6,7.2 L62.4,7.2 C63.72,7.2 64.8,8.28 64.8,9.6 L64.8,38.4 Z" transform="translate(51)"/>
    <path fill-rule="nonzero" d="M26.4333333,10.9633333 C25.3933333,4.76666667 19.9766667,0 13.4333333,0 C6.89,0 1.47333333,4.76666667 0.433333333,10.9633333 C0.346666667,11.3533333 0.823333333,11.6566667 1.12666667,11.3966667 C1.77666667,10.8333333 2.6,10.53 3.55333333,10.53 C4.76666667,10.53 5.80666667,11.0933333 6.5,11.96 C6.67333333,12.1766667 7.02,12.1766667 7.19333333,11.96 C7.88666667,11.0933333 8.92666667,10.53 10.14,10.53 C11.3533333,10.53 12.3933333,11.0933333 13.0866667,11.96 C13.26,12.1766667 13.6066667,12.1766667 13.78,11.96 C14.4733333,11.0933333 15.5133333,10.53 16.7266667,10.53 C17.94,10.53 18.98,11.0933333 19.6733333,11.96 C19.8466667,12.1766667 20.1933333,12.1766667 20.3666667,11.96 C21.06,11.0933333 22.1,10.53 23.3133333,10.53 C24.2233333,10.53 25.09,10.8766667 25.74,11.3966667 C26.0433333,11.6566667 26.4766667,11.3966667 26.4333333,10.9633333 Z M18.6333333,20.8 C17.8966667,20.8 17.3333333,21.3633333 17.3333333,22.1 C17.3333333,22.8366667 16.77,23.4 16.0333333,23.4 C15.2966667,23.4 14.7333333,22.8366667 14.7333333,22.1 L14.7333333,16.0333333 C14.7333333,15.2966667 14.17,14.7333333 13.4333333,14.7333333 C12.6966667,14.7333333 12.1333333,15.2966667 12.1333333,16.0333333 L12.1333333,22.1 C12.1333333,24.2666667 13.8666667,26 16.0333333,26 C18.2,26 19.9333333,24.2666667 19.9333333,22.1 C19.9333333,21.3633333 19.37,20.8 18.6333333,20.8 Z" transform="translate(73 11)"/>
    <path d="M67.0748417,71.2060471 C72.2241583,65.8212235 79.4087833,62.4857176 87.3501083,62.4857176 C97.9157333,62.4857176 107.139692,68.3828706 112.039458,77.1206353 C116.293883,75.2215294 121.017892,74.1566353 125.994133,74.1566353 C145.032383,74.1566353 160.473625,89.7209882 160.473625,108.925294 C160.473625,128.141671 145.032383,143.702 125.994133,143.702 C123.652925,143.702 121.3949,143.467294 119.191883,143.027388 C114.879767,150.728424 106.625833,155.938894 97.1952583,155.938894 C93.2373417,155.938894 89.4847,155.030918 86.1573667,153.397365 C81.776825,163.705647 71.577475,170.921176 59.6822583,170.921176 C47.2973333,170.921176 36.7572,163.079318 32.687925,152.096424 C30.9129,152.474635 29.0949417,152.674471 27.2152667,152.674471 C12.4555917,152.674471 0.5,140.613271 0.5,125.708776 C0.5,115.730424 5.87069167,107.004729 13.8401917,102.345482 C12.2060417,98.5700706 11.2963917,94.3949882 11.2963917,90.0012941 C11.2963917,72.8691059 25.2027667,59 42.3707333,59 C52.434575,59 61.3915417,63.7692235 67.0748417,71.2060471"/>
  </g>
</svg>
