<?xml version="1.0" encoding="utf-8"?>
<!-- Generator: Adobe Illustrator 21.0.2, SVG Export Plug-In . SVG Version: 6.00 Build 0)  -->
<svg version="1.1" id="Layer_1" xmlns="http://www.w3.org/2000/svg" xmlns:xlink="http://www.w3.org/1999/xlink" x="0px" y="0px"
	 width="100px" height="100px" viewBox="0 0 100 100" enable-background="new 0 0 100 100" xml:space="preserve">
<title></title>
<desc></desc>
<path fill-rule="evenodd" clip-rule="evenodd" fill="#FFFFFF" d="M79.5,74.7C79.5,74.7,79.5,74.7,79.5,74.7L79.5,74.7l-4.8,4.8l0,0
	c0,0,0,0,0,0c-0.7,0.7-1.7,0.7-2.4,0l0,0L50,57.2V50h7.2l6.6,6.6V36.2H36.2v27.6H50l10.1,10.1H29.5c-1.9,0-3.4-1.5-3.4-3.4l0,0l0,0
	V29.5l0,0c0-1.9,1.5-3.4,3.4-3.4h41.1c1.9,0,3.4,1.5,3.4,3.4v37.3l5.6,5.6l0,0C80.2,73,80.2,74.1,79.5,74.7z"/>
</svg>
