<?xml version="1.0" encoding="utf-8"?>
<svg width="100" height="100" viewBox="0 0 100 100" xmlns="http://www.w3.org/2000/svg" xmlns:xlink="http://www.w3.org/1999/xlink">
  <g fill="#FFF" fill-rule="evenodd" transform="translate(-23 18)">
    <path fill-rule="nonzero" d="M53.3333333,53.3333333 L52.2666667,53.3333333 L52.2666667,29.8666667 C52.2666667,28.6933333 51.3066667,27.7333333 50.1333333,27.7333333 L48,27.7333333 C46.8266667,27.7333333 45.8666667,28.6933333 45.8666667,29.8666667 L45.8666667,53.3333333 L39.4666667,53.3333333 L39.4666667,29.8666667 C39.4666667,28.6933333 38.5066667,27.7333333 37.3333333,27.7333333 L35.2,27.7333333 C34.0266667,27.7333333 33.0666667,28.6933333 33.0666667,29.8666667 L33.0666667,53.3333333 L26.6666667,53.3333333 L26.6666667,29.8666667 C26.6666667,28.6933333 25.7066667,27.7333333 24.5333333,27.7333333 L22.4,27.7333333 C21.2266667,27.7333333 20.2666667,28.6933333 20.2666667,29.8666667 L20.2666667,53.3333333 L13.8666667,53.3333333 L13.8666667,29.8666667 C13.8666667,28.6933333 12.9066667,27.7333333 11.7333333,27.7333333 L9.6,27.7333333 C8.42666667,27.7333333 7.46666667,28.6933333 7.46666667,29.8666667 L7.46666667,53.3333333 L6.4,53.3333333 C2.88,53.3333333 0,56.2133333 0,59.7333333 L0,61.8666667 C0,63.04 0.96,64 2.13333333,64 L57.6,64 C58.7733333,64 59.7333333,63.04 59.7333333,61.8666667 L59.7333333,59.7333333 C59.7333333,56.2133333 56.8533333,53.3333333 53.3333333,53.3333333 Z M58.6666667,15.36 L32.32,0.853333333 C31.5733333,0.32 30.72,-3.55271368e-15 29.8666667,-3.55271368e-15 C29.0133333,-3.55271368e-15 28.16,0.32 27.4133333,0.853333333 L1.06666667,15.36 C0.426666667,15.7866667 3.55271368e-15,16.4266667 3.55271368e-15,17.1733333 L3.55271368e-15,19.2 C3.55271368e-15,20.3733333 0.96,21.3333333 2.13333333,21.3333333 L57.6,21.3333333 C58.7733333,21.3333333 59.7333333,20.3733333 59.7333333,19.2 L59.7333333,17.28 C59.7333333,16.5333333 59.3066667,15.7866667 58.6666667,15.36 Z M29.8666667,17.0666667 C26.88,17.0666667 24.5333333,14.72 24.5333333,11.7333333 C24.5333333,8.74666667 26.88,6.4 29.8666667,6.4 C32.8533333,6.4 35.2,8.74666667 35.2,11.7333333 C35.2,14.72 32.8533333,17.0666667 29.8666667,17.0666667 Z" transform="translate(57)"/>
    <path d="M67.0748417,81.2060471 C72.2241583,75.8212235 79.4087833,72.4857176 87.3501083,72.4857176 C97.9157333,72.4857176 107.139692,78.3828706 112.039458,87.1206353 C116.293883,85.2215294 121.017892,84.1566353 125.994133,84.1566353 C145.032383,84.1566353 160.473625,99.7209882 160.473625,118.925294 C160.473625,138.141671 145.032383,153.702 125.994133,153.702 C123.652925,153.702 121.3949,153.467294 119.191883,153.027388 C114.879767,160.728424 106.625833,165.938894 97.1952583,165.938894 C93.2373417,165.938894 89.4847,165.030918 86.1573667,163.397365 C81.776825,173.705647 71.577475,180.921176 59.6822583,180.921176 C47.2973333,180.921176 36.7572,173.079318 32.687925,162.096424 C30.9129,162.474635 29.0949417,162.674471 27.2152667,162.674471 C12.4555917,162.674471 0.5,150.613271 0.5,135.708776 C0.5,125.730424 5.87069167,117.004729 13.8401917,112.345482 C12.2060417,108.570071 11.2963917,104.394988 11.2963917,100.001294 C11.2963917,82.8691059 25.2027667,69 42.3707333,69 C52.434575,69 61.3915417,73.7692235 67.0748417,81.2060471"/>
  </g>
</svg>
