<?xml version="1.0" encoding="utf-8"?>
<svg width="100" height="100" viewBox="0 0 100 100" xmlns="http://www.w3.org/2000/svg" xmlns:xlink="http://www.w3.org/1999/xlink">
  <g fill="#FFF" fill-rule="evenodd" transform="translate(-23 28)">
    <path fill-rule="nonzero" d="M64.8,0 L7.2,0 C3.24,0 0,3.24 0,7.2 L0,45.6 C0,49.56 3.24,52.8 7.2,52.8 L64.8,52.8 C68.76,52.8 72,49.56 72,45.6 L72,7.2 C72,3.24 68.76,0 64.8,0 Z M36,50.4 C33.96,50.4 32.4,48.84 32.4,46.8 C32.4,44.76 33.96,43.2 36,43.2 C38.04,43.2 39.6,44.76 39.6,46.8 C39.6,48.84 38.04,50.4 36,50.4 Z M64.8,38.4 C64.8,39.72 63.72,40.8 62.4,40.8 L9.6,40.8 C8.28,40.8 7.2,39.72 7.2,38.4 L7.2,9.6 C7.2,8.28 8.28,7.2 9.6,7.2 L62.4,7.2 C63.72,7.2 64.8,8.28 64.8,9.6 L64.8,38.4 Z" transform="translate(51)"/>
    <path fill-rule="nonzero" d="M23.3333333,23.3333333 L22.8666667,23.3333333 L22.8666667,13.0666667 C22.8666667,12.5533333 22.4466667,12.1333333 21.9333333,12.1333333 L21,12.1333333 C20.4866667,12.1333333 20.0666667,12.5533333 20.0666667,13.0666667 L20.0666667,23.3333333 L17.2666667,23.3333333 L17.2666667,13.0666667 C17.2666667,12.5533333 16.8466667,12.1333333 16.3333333,12.1333333 L15.4,12.1333333 C14.8866667,12.1333333 14.4666667,12.5533333 14.4666667,13.0666667 L14.4666667,23.3333333 L11.6666667,23.3333333 L11.6666667,13.0666667 C11.6666667,12.5533333 11.2466667,12.1333333 10.7333333,12.1333333 L9.8,12.1333333 C9.28666667,12.1333333 8.86666667,12.5533333 8.86666667,13.0666667 L8.86666667,23.3333333 L6.06666667,23.3333333 L6.06666667,13.0666667 C6.06666667,12.5533333 5.64666667,12.1333333 5.13333333,12.1333333 L4.2,12.1333333 C3.68666667,12.1333333 3.26666667,12.5533333 3.26666667,13.0666667 L3.26666667,23.3333333 L2.8,23.3333333 C1.26,23.3333333 0,24.5933333 0,26.1333333 L0,27.0666667 C0,27.58 0.42,28 0.933333333,28 L25.2,28 C25.7133333,28 26.1333333,27.58 26.1333333,27.0666667 L26.1333333,26.1333333 C26.1333333,24.5933333 24.8733333,23.3333333 23.3333333,23.3333333 Z M25.6666667,6.72 L14.14,0.373333333 C13.8133333,0.14 13.44,0 13.0666667,0 C12.6933333,0 12.32,0.14 11.9933333,0.373333333 L0.466666667,6.72 C0.186666667,6.90666667 3.55271368e-15,7.18666667 3.55271368e-15,7.51333333 L3.55271368e-15,8.4 C3.55271368e-15,8.91333333 0.42,9.33333333 0.933333333,9.33333333 L25.2,9.33333333 C25.7133333,9.33333333 26.1333333,8.91333333 26.1333333,8.4 L26.1333333,7.56 C26.1333333,7.23333333 25.9466667,6.90666667 25.6666667,6.72 Z M13.0666667,7.46666667 C11.76,7.46666667 10.7333333,6.44 10.7333333,5.13333333 C10.7333333,3.82666667 11.76,2.8 13.0666667,2.8 C14.3733333,2.8 15.4,3.82666667 15.4,5.13333333 C15.4,6.44 14.3733333,7.46666667 13.0666667,7.46666667 Z" transform="translate(74 10)"/>
    <path d="M67.0748417,71.2060471 C72.2241583,65.8212235 79.4087833,62.4857176 87.3501083,62.4857176 C97.9157333,62.4857176 107.139692,68.3828706 112.039458,77.1206353 C116.293883,75.2215294 121.017892,74.1566353 125.994133,74.1566353 C145.032383,74.1566353 160.473625,89.7209882 160.473625,108.925294 C160.473625,128.141671 145.032383,143.702 125.994133,143.702 C123.652925,143.702 121.3949,143.467294 119.191883,143.027388 C114.879767,150.728424 106.625833,155.938894 97.1952583,155.938894 C93.2373417,155.938894 89.4847,155.030918 86.1573667,153.397365 C81.776825,163.705647 71.577475,170.921176 59.6822583,170.921176 C47.2973333,170.921176 36.7572,163.079318 32.687925,152.096424 C30.9129,152.474635 29.0949417,152.674471 27.2152667,152.674471 C12.4555917,152.674471 0.5,140.613271 0.5,125.708776 C0.5,115.730424 5.87069167,107.004729 13.8401917,102.345482 C12.2060417,98.5700706 11.2963917,94.3949882 11.2963917,90.0012941 C11.2963917,72.8691059 25.2027667,59 42.3707333,59 C52.434575,59 61.3915417,63.7692235 67.0748417,71.2060471"/>
  </g>
</svg>
