<?xml version="1.0" encoding="utf-8"?>
<!-- Generator: Adobe Illustrator 21.1.0, SVG Export Plug-In . SVG Version: 6.00 Build 0)  -->
<svg version="1.1" id="Layer_1" xmlns="http://www.w3.org/2000/svg" xmlns:xlink="http://www.w3.org/1999/xlink" x="0px" y="0px"
	 width="100px" height="100px" viewBox="0 0 100 100" enable-background="new 0 0 100 100" xml:space="preserve">
<path fill="#FFFFFF" d="M76.7,60.5h3.6l-1.7-5.7l1.7-5.7h-6c-1.1-3.3-2.6-6.7-4.8-9.9c-2-3-4.5-6-7.7-8.6c-3.2-2.6-7-4.9-11.6-6.7
	l-0.3-0.1l-0.3,0.1c0,0-1.7,0.5-4.2,1.7c-1.9,0.9-4.2,2.3-6.7,4.2c-3.7,2.9-7.7,7-10.7,12.9c-1,1.9-1.9,4.1-2.7,6.4h-5.5l1.7,5.7
	l-1.7,5.7H23c-0.2,1.7-0.2,3.5-0.2,5.4c0,1,0,2.1,0.1,3.1l0,0.5l0.5,0.3c0,0,2.8,1.6,7.6,3.2c4.7,1.6,11.4,3.2,19.3,3.2
	c6.3,0,13.3-1,20.7-3.9c1.8-0.7,3.6-1.5,5.5-2.5l0.4-0.2l0,0l0.1,0l0-0.5c0-0.6,0-1.3,0.1-1.9c0-0.4,0-0.8,0-1.2c0,0,0,0,0,0
	C77,64.5,76.9,62.6,76.7,60.5z M22.4,58.5l1.1-3.7l-1.1-3.7h55.2l-1.1,3.7l1.1,3.7H22.4z M32.3,49.1l4-6.7l0,0l0.1-0.2v0l3.4-5.7
	l5.7,7.3l3.4-3.5l3.8,4.5l5.6-8.3l9.2,12.6H32.3z M28.7,45.5c0.7-1.6,1.5-3,2.3-4.4c0.1-0.2,0.3-0.4,0.4-0.7
	c0.1-0.2,0.2-0.4,0.4-0.6c7.3-11.1,17.6-14.2,17.8-14.2l0.3-0.1l0.3,0.1c7.4,3,12.7,7.6,16.3,12.6c1.2,1.6,2.2,3.2,3.1,4.8
	c1.1,2,1.9,4,2.6,6H70c-3-8-8.9-16.7-20.3-21.4c-2.3,0.7-14.9,5.5-20.5,21.4h-2.1C27.7,47.9,28.1,46.7,28.7,45.5z M75.2,67.8l0,0.6
	l-0.5,0.3c-8.6,4.3-17,5.7-24.3,5.7c-13.5,0-23.5-4.9-25-5.6c-0.2-0.1-0.4-0.2-0.6-0.3c0,0,0,0,0,0c0,0,0,0,0,0l-0.1,0l0-0.6
	c-0.1-2.6,0.1-5,0.3-7.3h2c-0.2,2.1-0.3,4.3-0.3,6.7c1.9,0.9,9,4.1,18.7,5c2.1-1.2,3.7-3.8,0.2-6.7c0,0-0.1,0-0.1-0.1c0,0,0,0,0,0
	c0,0,0,0-0.1,0c0,0,0,0,0,0c0,0,0,0-0.1-0.1c0,0,0,0,0,0c0,0-0.1,0-0.1-0.1c0,0,0,0,0,0c0,0,0,0-0.1-0.1c0,0,0,0,0,0
	c0,0,0,0-0.1-0.1c0,0,0,0,0,0c0,0-0.1-0.1-0.1-0.1c0,0,0,0,0,0c0,0,0,0-0.1-0.1c0,0,0,0,0,0c0,0,0,0-0.1-0.1c0,0,0,0,0,0
	c0-0.1-0.1-0.1-0.1-0.2c0,0,0,0,0,0c0,0,0-0.1-0.1-0.1c0,0,0,0,0,0c0-0.1-0.1-0.1-0.1-0.2c0,0,0,0,0,0c0,0,0-0.1,0-0.1c0,0,0,0,0,0
	c0,0,0-0.1,0-0.1c0,0,0,0,0,0c-0.5-1.1,0-2.3,3.3-2.5c1-0.1,4.3,0.1,3.1-1.1h1.6c1,1.1,1,2.5-4,3c-0.7,0.1-1,0.4-0.8,0.7
	c0,0,0,0,0,0c0,0,0,0,0,0c0,0,0,0,0,0c0,0,0,0,0,0c0,0,0,0,0,0c0,0,0,0,0,0c0,0,0,0,0,0c0,0,0,0,0,0c0,0,0,0,0,0c0,0,0,0,0,0
	c0,0,0,0,0,0c0,0,0,0,0,0c0,0,0,0,0,0c0,0,0,0,0.1,0c0,0,0,0,0,0c0,0,0,0,0.1,0c0,0,0,0,0,0c0,0,0,0,0,0c0,0,0,0,0,0c0,0,0,0,0,0
	c0,0,0,0,0,0c0,0,0,0,0.1,0c0,0,0,0,0,0c0,0,0,0,0.1,0c0,0,0,0,0,0c0,0,0,0,0.1,0c0,0,0,0,0,0c0,0,0.1,0,0.1,0
	c5.1,1.2,6.3,5,5.9,7.5c5.9-0.4,12.3-1.9,18.9-5.1c0-1,0-3.5-0.4-6.6h2c0.1,0.6,0.1,1.1,0.2,1.6C75.3,65.5,75.2,67.7,75.2,67.8z"/>
</svg>
