<?xml version="1.0" encoding="utf-8"?>
<svg width="100" height="100" viewBox="0 0 100 100" xmlns="http://www.w3.org/2000/svg" xmlns:xlink="http://www.w3.org/1999/xlink">
  <g fill="#FFF" fill-rule="evenodd" transform="translate(-23 15)">
    <path fill-rule="nonzero" d="M57.6,0 L6.4,0 C2.88,0 0,2.88 0,6.4 L0,42.6666667 C0,46.1866667 2.88,49.0666667 6.4,49.0666667 L57.6,49.0666667 C61.12,49.0666667 64,46.1866667 64,42.6666667 L64,6.4 C64,2.88 61.12,0 57.6,0 Z M52.2666667,28.8 C52.2666667,29.76 51.2,30.1866667 50.4533333,29.5466667 L45.5466667,24.64 L34.24,34.3466667 C32.96,35.6266667 30.9333333,35.6266667 29.76,34.3466667 L22.9333333,26.56 L10.7733333,37.2266667 C10.3466667,37.6533333 9.70666667,37.6533333 9.28,37.2266667 L8.74666667,36.6933333 C8.32,36.2666667 8.32,35.6266667 8.74666667,35.2 L20.6933333,18.88 C21.9733333,17.6 24,17.6 25.1733333,18.88 L32,25.7066667 L38.9333333,17.7066667 L34.4533333,13.6533333 C33.8133333,13.0133333 34.24,11.7333333 35.2,11.7333333 L50.1333333,11.7333333 C51.3066667,11.7333333 52.16,12.8 52.16,13.9733333 L52.16,28.8 L52.2666667,28.8 Z" transform="translate(55 13)"/>
    <path d="M67.0748417,84.2060471 C72.2241583,78.8212235 79.4087833,75.4857176 87.3501083,75.4857176 C97.9157333,75.4857176 107.139692,81.3828706 112.039458,90.1206353 C116.293883,88.2215294 121.017892,87.1566353 125.994133,87.1566353 C145.032383,87.1566353 160.473625,102.720988 160.473625,121.925294 C160.473625,141.141671 145.032383,156.702 125.994133,156.702 C123.652925,156.702 121.3949,156.467294 119.191883,156.027388 C114.879767,163.728424 106.625833,168.938894 97.1952583,168.938894 C93.2373417,168.938894 89.4847,168.030918 86.1573667,166.397365 C81.776825,176.705647 71.577475,183.921176 59.6822583,183.921176 C47.2973333,183.921176 36.7572,176.079318 32.687925,165.096424 C30.9129,165.474635 29.0949417,165.674471 27.2152667,165.674471 C12.4555917,165.674471 0.5,153.613271 0.5,138.708776 C0.5,128.730424 5.87069167,120.004729 13.8401917,115.345482 C12.2060417,111.570071 11.2963917,107.394988 11.2963917,103.001294 C11.2963917,85.8691059 25.2027667,72 42.3707333,72 C52.434575,72 61.3915417,76.7692235 67.0748417,84.2060471"/>
  </g>
</svg>
