<?xml version="1.0" encoding="utf-8"?>
<svg width="100" height="100" viewBox="0 0 100 100" xmlns="http://www.w3.org/2000/svg" xmlns:xlink="http://www.w3.org/1999/xlink">
  <g fill="#FFF" fill-rule="evenodd" transform="translate(-23 15)">
    <path fill-rule="nonzero" d="M64.8,0 L7.2,0 C3.24,0 0,3.24 0,7.2 L0,45.6 C0,49.56 3.24,52.8 7.2,52.8 L64.8,52.8 C68.76,52.8 72,49.56 72,45.6 L72,7.2 C72,3.24 68.76,0 64.8,0 Z M36,50.4 C33.96,50.4 32.4,48.84 32.4,46.8 C32.4,44.76 33.96,43.2 36,43.2 C38.04,43.2 39.6,44.76 39.6,46.8 C39.6,48.84 38.04,50.4 36,50.4 Z M64.8,38.4 C64.8,39.72 63.72,40.8 62.4,40.8 L9.6,40.8 C8.28,40.8 7.2,39.72 7.2,38.4 L7.2,9.6 C7.2,8.28 8.28,7.2 9.6,7.2 L62.4,7.2 C63.72,7.2 64.8,8.28 64.8,9.6 L64.8,38.4 Z" transform="translate(51 13)"/>
    <path fill-rule="nonzero" d="M35.352,14.0832 C35.3579893,14.4273503 35.1522363,14.7399289 34.8337623,14.8705032 C34.5152883,15.0010775 34.1493263,14.9229022 33.912,14.6736 L30.0456,10.8 L21.1104,18.468 C20.649497,18.9540996 20.0090689,19.2294087 19.3392,19.2294087 C18.6693311,19.2294087 18.028903,18.9540996 17.568,18.468 L12.1752,12.3192 L2.5704,20.7432 C2.41676567,20.9052332 2.20328963,20.9970029 1.98,20.9970029 C1.75671037,20.9970029 1.54323433,20.9052332 1.3896,20.7432 L0.9648,20.3184 C0.802766815,20.1647657 0.710997106,19.9512896 0.710997106,19.728 C0.710997106,19.5047104 0.802766815,19.2912343 0.9648,19.1376 L10.4112,6.2496 C10.872103,5.76350044 11.5125311,5.48819132 12.1824,5.48819132 C12.8522689,5.48819132 13.492697,5.76350044 13.9536,6.2496 L19.3464,11.6424 L24.8256,5.3208 L21.2832,2.1168 C21.0482319,1.86215976 20.9788258,1.49591993 21.1043341,1.17296584 C21.2298423,0.850011755 21.5283437,0.626750194 21.8736,0.5976 L33.6672,0.5976 C34.1174317,0.618084438 34.540885,0.817349497 34.843653,1.15120534 C35.1464211,1.48506119 35.3034801,1.92591456 35.28,2.376 L35.352,14.0832 Z" transform="translate(69 27)"/>
    <path d="M67.0748417,84.2060471 C72.2241583,78.8212235 79.4087833,75.4857176 87.3501083,75.4857176 C97.9157333,75.4857176 107.139692,81.3828706 112.039458,90.1206353 C116.293883,88.2215294 121.017892,87.1566353 125.994133,87.1566353 C145.032383,87.1566353 160.473625,102.720988 160.473625,121.925294 C160.473625,141.141671 145.032383,156.702 125.994133,156.702 C123.652925,156.702 121.3949,156.467294 119.191883,156.027388 C114.879767,163.728424 106.625833,168.938894 97.1952583,168.938894 C93.2373417,168.938894 89.4847,168.030918 86.1573667,166.397365 C81.776825,176.705647 71.577475,183.921176 59.6822583,183.921176 C47.2973333,183.921176 36.7572,176.079318 32.687925,165.096424 C30.9129,165.474635 29.0949417,165.674471 27.2152667,165.674471 C12.4555917,165.674471 0.5,153.613271 0.5,138.708776 C0.5,128.730424 5.87069167,120.004729 13.8401917,115.345482 C12.2060417,111.570071 11.2963917,107.394988 11.2963917,103.001294 C11.2963917,85.8691059 25.2027667,72 42.3707333,72 C52.434575,72 61.3915417,76.7692235 67.0748417,84.2060471"/>
  </g>
</svg>
