<?xml version="1.0" encoding="utf-8"?>
<!-- Generator: Adobe Illustrator 21.1.0, SVG Export Plug-In . SVG Version: 6.00 Build 0)  -->
<svg version="1.1" id="Layer_1" xmlns="http://www.w3.org/2000/svg" xmlns:xlink="http://www.w3.org/1999/xlink" x="0px" y="0px"
	 width="52px" height="52px" viewBox="0 0 52 52" enable-background="new 0 0 52 52" xml:space="preserve">
<g>
	<path fill="#FFFFFF" d="M32.3,15.1h6.1c0.3,0,0.5-0.4,0.3-0.7l-6.4-6.4c-0.3-0.2-0.7,0-0.7,0.3v6.1C31.5,14.8,31.8,15.1,32.3,15.1z
		"/>
	<path fill="#FFFFFF" d="M32,26.5c2-2,4.6-3.2,7.2-3.5v-4c0-0.5-0.3-0.8-0.8-0.8h-8.5c-0.9,0-1.6-0.7-1.6-1.6V8.1
		c0-0.5-0.3-0.8-0.8-0.8H17.1c-0.6,0-1.2,0.5-1.2,1.2v3.1c0,0.3,0.2,0.6,0.3,0.9l4.3,4.3c0.6,0.6,1.1,1.5,1.2,2.4
		c0.2,1.2-0.2,2.4-1.1,3.3l-1.2,1.1c-0.4,0.4-0.8,0.6-1.2,0.9c0.5,0.2,1.2,0.4,1.8,0.5c2,0.2,3.6,1.9,3.6,4v1.7
		c0,1.1-0.5,2.2-1.3,2.9c-0.8,0.8-1.9,1.1-3,1c-0.9-0.1-1.6-0.2-2.5-0.4c-0.5-0.2-0.9,0.2-0.9,0.8v2.4c0,0.6,0.5,1.2,1.2,1.2h11.6
		C27.7,34.3,28.8,29.8,32,26.5z"/>
	<path fill="#FFFFFF" d="M20.6,30.5v-1.7c0-0.5-0.4-0.8-0.9-0.9c-4.2-0.4-7.7-4-7.7-8.4v-0.9c0-0.5,0.6-0.8,0.9-0.4l3.1,3.1
		c0.3,0.3,0.9,0.3,1.2,0l1.2-1.2c0.3-0.3,0.3-0.9,0-1.2l-7.5-7.5c-0.3-0.3-0.9-0.3-1.2,0L2.2,19c-0.3,0.3-0.3,0.9,0,1.2l1.2,1.2
		c0.3,0.3,0.9,0.4,1.2,0.1l3.3-3.1c0.4-0.4,1.1-0.1,1.1,0.4v1.5c0,5.6,4.9,10.7,10.8,11.2C20.2,31.4,20.6,31,20.6,30.5z"/>
</g>
<path fill="#FFFFFF" d="M47.4,28.8c-3.6-3.6-9.5-3.6-13.2,0c-3.6,3.6-3.6,9.5,0,13.2c3.6,3.6,9.5,3.6,13.2,0
	C51.1,38.3,51.1,32.4,47.4,28.8z M44.7,37c0.3,0.3,0.3,0.9-0.1,1.2l-1.1,1.1c-0.3,0.3-0.7,0.3-1-0.1l-1.6-1.6l-1.7,1.7
	c-0.3,0.3-0.7,0.3-1-0.1L37,38.1c-0.3-0.3-0.4-0.7-0.1-1l1.7-1.7L37,33.7c-0.3-0.3-0.4-0.7-0.1-1l1.1-1.1c0.3-0.3,0.9-0.4,1.2-0.1
	l1.6,1.6l1.6-1.6c0.3-0.3,0.9-0.4,1.2-0.1l1.1,1.1c0.3,0.3,0.3,0.9-0.1,1.2L43,35.3L44.7,37z"/>
</svg>
