<?xml version="1.0" encoding="utf-8"?>
<!-- Generator: Adobe Illustrator 21.1.0, SVG Export Plug-In . SVG Version: 6.00 Build 0)  -->
<svg version="1.1" id="Layer_1" xmlns="http://www.w3.org/2000/svg" xmlns:xlink="http://www.w3.org/1999/xlink" x="0px" y="0px"
	 width="52px" height="52px" viewBox="0 0 52 52" enable-background="new 0 0 52 52" xml:space="preserve">
<g>
	<path fill="#FFFFFF" d="M27.4,32.5c-1.1-0.6-2.4-1.2-3.7-1.7c-2.5-1-3-1.9-3-3c0-1,0.7-1.9,1.5-2.7c1.5-1.3,2.2-3.3,2.2-5.4
		c0-4-2.5-7.2-7-7.2c-4.6,0-7,3.2-7,7.2c0,2.1,0.7,4.1,2.2,5.4c0.8,0.8,1.5,1.7,1.5,2.7c0,1-0.4,1.9-3,3C7.5,32.3,4,34,3.9,37.2
		c0.2,2.2,1.9,4.1,4,4.1h16.4C24.3,38.1,25.3,35,27.4,32.5z"/>
	<path fill="#FFFFFF" d="M26.9,10.8v-3c4,0,7.2,3.2,7.2,7.2h-3l4.6,5.7c0.3,0.3,0.7,0.3,0.9,0l4.6-5.7h-3c0-6.3-5.2-11.4-11.4-11.4
		v-3l-5.7,4.6c-0.3,0.3-0.2,0.7,0.1,0.9L26.9,10.8z"/>
</g>
<path fill="#FFFFFF" d="M45.1,34c-4-4-10.4-4-14.4,0s-4,10.4,0,14.4s10.4,4,14.4,0S49.1,37.9,45.1,34z M42.1,42.9
	c0.3,0.3,0.3,0.9-0.1,1.3l-1.2,1.2c-0.3,0.3-0.8,0.3-1.1-0.1L38,43.5l-1.9,1.9c-0.3,0.3-0.8,0.3-1.1-0.1l-1.3-1.2
	c-0.3-0.3-0.4-0.8-0.1-1.1l1.9-1.9l-1.8-1.9c-0.3-0.3-0.4-0.8-0.1-1.1l1.2-1.2c0.3-0.3,0.9-0.4,1.3-0.1l1.8,1.8l1.8-1.8
	c0.3-0.3,0.9-0.4,1.3-0.1l1.2,1.2c0.3,0.3,0.3,0.9-0.1,1.3l-1.8,1.8L42.1,42.9z"/>
</svg>
