<?xml version="1.0" encoding="utf-8"?>
<!-- Generator: Adobe Illustrator 21.1.0, SVG Export Plug-In . SVG Version: 6.00 Build 0)  -->
<svg version="1.1" id="Layer_1" xmlns="http://www.w3.org/2000/svg" xmlns:xlink="http://www.w3.org/1999/xlink" x="0px" y="0px"
	 width="52px" height="52px" viewBox="0 0 52 52" enable-background="new 0 0 52 52" xml:space="preserve">
<path fill-rule="evenodd" clip-rule="evenodd" fill="#FFFFFF" d="M49.9,28.5L49.9,28.5c-1-2.4-2.1-4.2-3.3-5.6
	c-1.1-1.3-4.3-3.2-6.1-3.9c0.5-0.7,1.5-1.2,3-1.5c-0.1-1-1.1-2.1-3-3.3c-1.9-1.2-4.5-1.5-7.8-0.8c0-1.2-0.8-3.3-2.5-6.4
	C27.8,2.3,17.9,0.8,18,3c0.9,2.7,1.3,6.2,1.4,10.3c-1.2-1.4-2.5-2.3-3.9-2.7c-1.1-0.3-2.1-0.4-3.1-0.2c-0.1,0-0.2,0.1-0.3,0.1
	c-0.3,0.2-0.3,0.7-0.1,1l0,0c0.6,0.8,0.9,1.4,1.1,1.8c0.2,0.6,0.6,1.4,1.1,2.6c-1.5-0.2-3.4,0.3-6,1.5c-2.4,1.2-4.4,3.9-6.1,8.2
	c0,0.1,0,0.1,0,0.2c0,0.4,0.2,0.7,0.5,0.8l0,0c2.3,0.4,3.9,0.8,4.8,1.3c1,0.5,2.1,1.6,3.4,3.1c-0.5-0.1-1.3,0.4-2.5,1.5
	c-1.1,0.9-1.9,2.3-2.4,4.3c0,0.1,0,0.1,0,0.2c0,0.4,0.2,0.7,0.6,0.7v0c1.7,0.1,3.4,0.4,5,0.9c1.8,0.6,3.2,1.2,4.2,1.9c0,0,0,0,0,0
	c0-0.2,0-0.4,0-0.5c0-1.9,0-4.2,0-5.3c0-1.4-0.1-2.5,1.3-4.2c1.4-1.7,2.8-2.1,6.1-0.8c3.3,1.3,7-1.4,9.9-0.7c3,0.7,4.5,3.7,4.8,5.8
	c0.3,2.1,0,3.2,0,5.8c0,0.1,0,0.3,0,0.4c0,0,0,0,0.1,0c1.5-0.9,2.3-1.4,3.5-1.9c0.8-0.4,2.1-0.8,3.8-1.4c-0.1-1-0.9-1.9-2.5-2.9
	c0.5-0.2,2.8-1.7,4.1-2.7c0.8-0.6,1.8-1.5,3.1-2.8C50,29.2,50.1,28.8,49.9,28.5z"/>
<ellipse fill-rule="evenodd" clip-rule="evenodd" fill="#FFFFFF" cx="29.3" cy="38.4" rx="1.5" ry="2.2"/>
<ellipse fill-rule="evenodd" clip-rule="evenodd" fill="#FFFFFF" cx="20.7" cy="38.4" rx="1.5" ry="2.2"/>
<path fill-rule="evenodd" clip-rule="evenodd" fill="#FFFFFF" d="M22.9,42.5c-0.9-0.5-2.3-0.3-3.1,0.1C19,43,18,44.2,18,45.3
	c0,1.1,0.3,1.8,0.5,2.2c0.1,0.3,0.4,0.6,0.8,1.1l0,0c0.1,0.2,0.3,0.2,0.5,0.2l1.4-0.3l3,1.4c0.1,0.1,0.3,0.1,0.4,0l3.3-1.4l1.7,0.3
	c0.1,0,0.3,0,0.4-0.1c0.8-0.5,1.3-1.2,1.6-1.9c0.4-1.2,0-3.1-1-3.9c-0.9-0.9-2.3-1.2-3.7-0.6c-1.1,0.4-1.9,0.6-2.5,0.6
	C24,42.9,23.6,42.7,22.9,42.5z"/>
</svg>
