<?xml version="1.0" encoding="utf-8"?>
<svg version="1.1" id="Layer_1" xmlns="http://www.w3.org/2000/svg" xmlns:xlink="http://www.w3.org/1999/xlink" x="0px" y="0px"
	 width="52px" height="52px" viewBox="0 0 52 52" enable-background="new 0 0 52 52" xml:space="preserve">
<g>
	<path fill="#FFFFFF" d="M46,32.7c-4.2-4.2-11-4.2-15.2,0c-4.2,4.2-4.2,11,0,15.2c4.2,4.2,11,4.2,15.2,0
		C50.2,43.7,50.2,36.9,46,32.7z M42.8,43.5l-1.3,1.3c-0.4,0.4-0.8,0.4-1.2-0.1l-1.9-1.9l-2,2c-0.4,0.4-0.8,0.4-1.2-0.1l-1.3-1.3
		c-0.4-0.4-0.4-0.8-0.1-1.2l2-2l-1.9-2c-0.4-0.4-0.4-0.8-0.1-1.2l1.3-1.3c0.4-0.4,1-0.4,1.3-0.1l1.9,1.9l1.9-1.9
		c0.4-0.4,1-0.4,1.3-0.1l1.3,1.3c0.4,0.4,0.4,1-0.1,1.3L40.8,40l2.1,2.2C43.3,42.6,43.3,43.2,42.8,43.5z"/>
	<path fill="#FFFFFF" d="M24.2,0.9C12.3,0.9,2.9,9.7,2.9,20.5c0,3.4,1,6.6,2.6,9.5c0.3,0.4,0.4,1,0.2,1.5l-2.8,7.6
		c-0.3,0.7,0.4,1.3,1.2,1.2l7.7-2.9c0.4-0.2,1-0.1,1.5,0.2c3.1,1.7,6.8,2.8,10.8,2.8c-0.1-3.2,1-6.2,2.9-8.7h-3.9
		c-0.6,0-1.2-0.6-1.2-1.2V20.2c0-0.6,0.6-1.2,1.2-1.2H35c0.6,0,1.2,0.6,1.2,1.2v6c2.8-0.5,5.7-0.1,8.4,1.1c0.8-2.1,1.2-4.3,1.2-6.6
		C45.6,9.7,36,0.9,24.2,0.9z M18.8,30.5c0,0.6-0.6,1.2-1.2,1.2h-1.2c-1.7,0-3.2-1.4-3.2-3.2v-8.3c0-0.6,0.6-1.2,1.2-1.2h3.2
		c0.6,0,1.2,0.6,1.2,1.2V30.5z M36.2,14.7c0,0.6-0.6,1.2-1.2,1.2H14.4c-0.6,0-1.2-0.6-1.2-1.2v-1.2c0-1.7,1.4-3.2,3.2-3.2H33
		c1.7,0,3.2,1.4,3.2,3.2V14.7z"/>
</g>
</svg>
