<?xml version="1.0" encoding="utf-8"?>
<!-- Generator: Adobe Illustrator 21.1.0, SVG Export Plug-In . SVG Version: 6.00 Build 0)  -->
<svg version="1.1" id="Layer_1" xmlns="http://www.w3.org/2000/svg" xmlns:xlink="http://www.w3.org/1999/xlink" x="0px" y="0px"
	 width="52px" height="52px" viewBox="0 0 52 52" enable-background="new 0 0 52 52" xml:space="preserve">
<g>
	<path fill="#FFFFFF" d="M28.3,30.2c4.4-4.4,10.9-5.3,16.2-2.9c0.8-2.1,1.2-4.3,1.2-6.6C45.6,9.7,36,0.9,24.2,0.9
		C12.3,0.9,2.9,9.7,2.9,20.5c0,3.4,1,6.6,2.6,9.5c0.3,0.4,0.4,1,0.2,1.5l-2.8,7.6c-0.3,0.7,0.4,1.3,1.2,1.2l7.7-2.9
		c0.4-0.2,1-0.1,1.5,0.2c3.1,1.7,6.8,2.8,10.8,2.8C24,36.6,25.5,33,28.3,30.2z M35,17c2,0,3.6,1.6,3.6,3.6s-1.6,3.6-3.6,3.6
		s-3.6-1.6-3.6-3.6S33,17,35,17z M13.5,24.2c-2,0-3.6-1.6-3.6-3.6s1.6-3.6,3.6-3.6s3.6,1.6,3.6,3.6S15.5,24.2,13.5,24.2z M24.2,17
		c2,0,3.6,1.6,3.6,3.6s-1.6,3.6-3.6,3.6s-3.6-1.6-3.6-3.6S22.3,17,24.2,17z"/>
	<path fill="#FFFFFF" d="M46,32.7c-4.2-4.2-11-4.2-15.2,0s-4.2,11,0,15.2s11,4.2,15.2,0S50.2,36.9,46,32.7z M42.9,42.2
		c0.4,0.4,0.4,1-0.1,1.3l-1.3,1.3c-0.4,0.4-0.8,0.4-1.2-0.1l-1.9-1.9l-2,2c-0.4,0.4-0.8,0.4-1.2-0.1l-1.3-1.3
		c-0.4-0.4-0.4-0.8-0.1-1.2l2-2l-1.9-2c-0.4-0.4-0.4-0.8-0.1-1.2l1.3-1.3c0.4-0.4,1-0.4,1.3-0.1l1.9,1.9l1.9-1.9
		c0.4-0.4,1-0.4,1.3-0.1l1.3,1.3c0.4,0.4,0.4,1-0.1,1.3l-1.9,1.9L42.9,42.2z"/>
</g>
</svg>
