<?xml version="1.0" encoding="utf-8"?>
<!-- Generator: Adobe Illustrator 21.1.0, SVG Export Plug-In . SVG Version: 6.00 Build 0)  -->
<svg version="1.1" id="Layer_1" xmlns="http://www.w3.org/2000/svg" xmlns:xlink="http://www.w3.org/1999/xlink" x="0px" y="0px"
	 width="52px" height="52px" viewBox="0 0 52 52" enable-background="new 0 0 52 52" xml:space="preserve">
<path fill="#FFFFFF" d="M46,32.7c-4.2-4.2-11-4.2-15.2,0s-4.2,11,0,15.2s11,4.2,15.2,0S50.2,36.9,46,32.7z M42.8,43.5l-1.3,1.3
	c-0.4,0.4-0.8,0.4-1.2-0.1l-1.9-1.9l-2,2c-0.4,0.4-0.8,0.4-1.2-0.1l-1.3-1.3c-0.4-0.4-0.4-0.8-0.1-1.2l2-2l-1.9-2
	c-0.4-0.4-0.4-0.8-0.1-1.2l1.3-1.3c0.4-0.4,1-0.4,1.3-0.1l1.9,1.9l1.9-1.9c0.4-0.4,1-0.4,1.3-0.1l1.3,1.3c0.4,0.4,0.4,1-0.1,1.3
	L40.8,40l2.1,2.2C43.3,42.6,43.3,43.2,42.8,43.5z"/>
<path fill="#FFFFFF" d="M27,31.7"/>
<path fill="#FFFFFF" d="M24.2,0.9C12.3,0.9,2.9,9.7,2.9,20.5c0,3.4,1,6.6,2.6,9.5c0.3,0.4,0.4,1,0.2,1.5l-2.8,7.6
	c-0.3,0.7,0.4,1.3,1.2,1.2l7.7-2.9c0.4-0.2,1-0.1,1.5,0.2c3.1,1.7,6.8,2.8,10.8,2.8c-0.1-3.2,1-6.2,2.9-8.7c0,0,0,0,0,0h-1.9
	c-0.5,0-0.8-0.3-0.8-0.8v-9.2c0-0.5,0.3-0.8,0.8-0.8h9.2c0.5,0,0.8,0.3,0.8,0.8v4.7c0.7-0.2,1.2-0.2,1.2-0.2
	c2.8-0.5,5.7-0.1,8.4,1.1c0.8-2.1,1.2-4.3,1.2-6.6C45.6,9.7,36,0.9,24.2,0.9z M19.7,30.9c0,0.5-0.3,0.8-0.8,0.8h-4.6
	c-0.5,0-0.8-0.3-0.8-0.8v-9.2c0-0.5,0.3-0.8,0.8-0.8H19c0.5,0,0.8,0.3,0.8,0.8V30.9z M35,15.6c0,0.5-0.3,0.8-0.8,0.8H14.4
	c-0.5,0-0.8-0.3-0.8-0.8V11c0-0.5,0.3-0.8,0.8-0.8h19.9c0.5,0,0.8,0.3,0.8,0.8V15.6z"/>
</svg>
