<?xml version="1.0" encoding="utf-8"?>
<!-- Generator: Adobe Illustrator 23.0.4, SVG Export Plug-In . SVG Version: 6.00 Build 0)  -->
<svg version="1.1" id="Layer_1" xmlns="http://www.w3.org/2000/svg" xmlns:xlink="http://www.w3.org/1999/xlink" x="0px" y="0px"
	 width="52px" height="52px" viewBox="0 0 52 52" enable-background="new 0 0 52 52" xml:space="preserve">
<title></title>
<desc></desc>
<path fill="#FFFFFF" d="M46.3,18.8c2,0,3.7-1.7,3.7-3.7V5.7c0-2-1.7-3.7-3.7-3.7H5.7C3.7,2,2,3.7,2,5.7v9.4c0,2,1.7,3.7,3.7,3.7
	H46.3z"/>
<g>
	<path fill-rule="evenodd" clip-rule="evenodd" fill="#FFFFFF" d="M46.3,24H5.7c-2,0-3.7,1.7-3.7,3.7v9.4c0,2,1.7,3.7,3.7,3.7H26
		l9.6,8.9c0.4,0.4,1,0.3,1.4-0.1c0.1-0.1,0.2-0.2,0.2-0.4l2.3-8.4l0,0h6.7c2,0,3.7-1.7,3.7-3.7v-9.4C50,25.7,48.3,24,46.3,24z"/>
</g>
</svg>
