<?xml version="1.0" encoding="utf-8"?>
<!-- Generator: Adobe Illustrator 21.1.0, SVG Export Plug-In . SVG Version: 6.00 Build 0)  -->
<svg version="1.1" id="Layer_1" xmlns="http://www.w3.org/2000/svg" xmlns:xlink="http://www.w3.org/1999/xlink" x="0px" y="0px"
	 width="52px" height="52px" viewBox="0 0 52 52" enable-background="new 0 0 52 52" xml:space="preserve">
<g>
	<path fill="#FFFFFF" d="M6.6,5.1H4.2C3.6,5.1,3,5.7,3,6.3v36.4C3,43.4,3.6,44,4.2,44h2.4c0.6,0,1.2-0.6,1.2-1.2V6.3
		C7.9,5.7,7.3,5.1,6.6,5.1z"/>
	<path fill="#FFFFFF" d="M30,27.9c2.8-2.8,6.6-4.1,10.2-3.8V10.4c0-0.6-0.6-1-1.2-0.6c-13,6.8-11.5-7.1-27.1-1.7
		c-0.5,0.2-0.8,0.6-0.8,1.1V28c0,0.6,0.6,1,1.1,0.7c8.7-2.9,12,0.3,15.6,2.3C28.3,29.9,29.1,28.9,30,27.9z"/>
</g>
<path fill="#FFFFFF" d="M46.1,30.3c-3.8-3.8-10-3.8-13.8,0c-3.8,3.8-3.8,10,0,13.8s10,3.8,13.8,0S50,34.1,46.1,30.3z M43.3,38.9
	c0.3,0.3,0.3,0.9-0.1,1.2l-1.1,1.1c-0.3,0.3-0.7,0.3-1.1-0.1l-1.7-1.7l-1.8,1.8c-0.3,0.3-0.7,0.3-1.1-0.1L35.3,40
	c-0.3-0.3-0.4-0.7-0.1-1.1l1.8-1.8l-1.7-1.8c-0.3-0.3-0.4-0.7-0.1-1.1l1.1-1.1c0.3-0.3,0.9-0.4,1.2-0.1l1.7,1.7l1.7-1.7
	c0.3-0.3,0.9-0.4,1.2-0.1l1.1,1.1c0.3,0.3,0.3,0.9-0.1,1.2l-1.7,1.7L43.3,38.9z"/>
</svg>
