<?xml version="1.0" encoding="utf-8"?>
<!-- Generator: Adobe Illustrator 21.0.0, SVG Export Plug-In . SVG Version: 6.00 Build 0)  -->
<svg version="1.1" id="Layer_1" xmlns="http://www.w3.org/2000/svg" xmlns:xlink="http://www.w3.org/1999/xlink" x="0px" y="0px"
	 viewBox="0 0 52 52" height="52" width="52" enable-background="new 0 0 52 52" xml:space="preserve">
<path fill="#FFFFFF" d="M28.9,43v5c0,1.1-0.9,2-2,2h-2c-1.1,0-2-0.9-2-2v-5c0-0.6,0.5-0.9,1-0.8c0,0,1,0.3,2,0.3s2.1-0.3,2.1-0.3
	C28.6,42.1,29,42.5,28.9,43z M11,10.8V4c0-1.1-0.9-2-2-2H7C5.9,2,5,2.9,5,4v6.8c-1.8,1-3,3-3,5.2c0,3.3,2.7,6,6,6s6-2.7,6-6
	C14,13.8,12.8,11.8,11,10.8z M10,26.2c0,0-1.1,0.3-2.1,0.3s-2-0.3-2-0.3c-0.5-0.1-1,0.2-1,0.8v21c0,1.1,0.9,2,2,2h2c1.1,0,2-0.9,2-2
	V27C11,26.4,10.6,26.1,10,26.2z M46,30.2c0,0-1.1,0.3-2.1,0.3s-2-0.3-2-0.3c-0.5-0.1-1,0.2-1,0.8v17c0,1.1,0.9,2,2,2h2
	c1.1,0,2-0.9,2-2V31C47,30.5,46.6,30.1,46,30.2z M47,14.8V4c0-1.1-0.9-2-2-2h-2c-1.1,0-2,0.9-2,2v10.8c-1.8,1-3,3-3,5.2
	c0,3.3,2.7,6,6,6s6-2.7,6-6C50,17.8,48.8,15.8,47,14.8z M29,26.8V4c0-1.1-0.9-2-2-2h-2c-1.1,0-2,0.9-2,2v22.8c-1.8,1-3,3-3,5.2
	c0,3.3,2.7,6,6,6s6-2.7,6-6C32,29.8,30.8,27.8,29,26.8z"/>
</svg>
