<svg xmlns="http://www.w3.org/2000/svg" width="52" height="52" viewBox="0 0 52 52">
  <g fill="#FFF" transform="translate(2 3)">
    <path d="M3.23076923 0L38.7692308 0C40.5461538 0 42 1.5 42 3.33333333L42 6.66666667C42 8.5 40.5461538 10 38.7692308 10L3.23076923 10C1.45384615 10 0 8.5 0 6.66666667L0 3.33333333C0 1.5 1.45384615 0 3.23076923 0zM3.15151515 15L22.8484848 15C24.5818182 15 26 16.5 26 18.3333333L26 21.6666667C26 23.5 24.5818182 25 22.8484848 25L3.15151515 25C1.41818182 25 0 23.5 0 21.6666667L0 18.3333333C0 16.5 1.41818182 15 3.15151515 15zM37 25C43.05 25 48 29.95 48 36 48 42.05 43.05 47 37 47 30.95 47 26 42.05 26 36 26 29.95 30.95 25 37 25zM44.04 32.92C44.28 32.68 44.28 32.12 44.04 31.88L42.92 30.84C42.6 30.52 42.12 30.52 41.8 30.84L35.8 37.56 33.08 34.84C32.76 34.52 32.28 34.52 31.96 34.84L30.84 35.88C30.52 36.12 30.52 36.6 30.84 36.92L34.68 40.68C35 41 35.4 41.16 35.8 41.16 36.28 41.16 36.6 41 36.92 40.68L44.04 32.92zM3.2 30L21.76 30C21.12 31.9166667 20.8 33.5833333 20.8 35 20.72 36.75 20.88 38.4166667 21.28 40L3.2 40 3.2 40C1.44 40 0 38.5 0 36.6666667L0 33.3333333 0 33.3333333C0 31.5 1.44 30 3.2 30z"/>
  </g>
</svg>
