<?xml version="1.0" encoding="utf-8"?>
<!-- Generator: Adobe Illustrator 21.1.0, SVG Export Plug-In . SVG Version: 6.00 Build 0)  -->
<svg version="1.1" id="Layer_1" xmlns="http://www.w3.org/2000/svg" xmlns:xlink="http://www.w3.org/1999/xlink" x="0px" y="0px"
	 width="52px" height="52px" viewBox="0 0 52 52" enable-background="new 0 0 52 52" xml:space="preserve">
<title></title>
<desc></desc>
<path fill="#FFFFFF" d="M45.4,33.3H48l-1.2-4.1l1.2-4.1h-4.4c-0.8-2.4-1.9-4.8-3.5-7.2c-1.5-2.2-3.3-4.3-5.6-6.3
	c-2.3-1.9-5.1-3.6-8.4-4.9l-0.2-0.1l-0.2,0.1c0,0-1.3,0.3-3.1,1.2c-1.4,0.7-3.1,1.7-4.9,3.1c-2.7,2.1-5.6,5.1-7.8,9.4
	c-0.7,1.4-1.4,3-1.9,4.7h-4l1.2,4.1L4,33.3h2.4c-0.1,1.3-0.2,2.6-0.2,3.9c0,0.7,0,1.5,0.1,2.3l0,0.4l0.3,0.2c0,0,2.1,1.2,5.5,2.3
	c3.5,1.2,8.3,2.3,14.1,2.3c4.6,0,9.7-0.7,15.1-2.8c1.3-0.5,2.7-1.1,4-1.8l0.3-0.2l0,0l0.1,0l0-0.4c0-0.5,0-0.9,0-1.4
	c0-0.3,0-0.6,0-0.9c0,0,0,0,0,0C45.7,36.2,45.6,34.9,45.4,33.3z M5.9,31.9l0.8-2.7l-0.8-2.7h40.2l-0.8,2.7l0.8,2.7H5.9z M13.1,25.1
	l2.9-4.9l0,0l0.1-0.1v0l2.5-4.1l4.2,5.3l2.5-2.5L28,22l4.1-6l6.7,9.1H13.1z M10.5,22.4c0.5-1.1,1.1-2.2,1.7-3.2
	c0.1-0.2,0.2-0.3,0.3-0.5c0.1-0.1,0.2-0.3,0.3-0.4C18,10.3,25.6,8,25.7,8l0.2-0.1L26.1,8c5.4,2.2,9.2,5.5,11.9,9.2
	c0.9,1.1,1.6,2.3,2.3,3.5c0.8,1.4,1.4,2.9,1.9,4.3h-1.6c-2.2-5.8-6.5-12.1-14.7-15.6c-1.7,0.5-10.8,4-14.9,15.6H9.4
	C9.7,24.2,10.1,23.3,10.5,22.4z M44.3,38.7l0,0.4l-0.4,0.2c-6.3,3.1-12.3,4.2-17.7,4.2c-9.8,0-17.1-3.5-18.2-4.1
	c-0.2-0.1-0.3-0.2-0.4-0.2c0,0,0,0,0,0c0,0,0,0,0,0l-0.1,0l0-0.4c0-1.9,0-3.6,0.2-5.3h1.5C9,34.8,8.9,36.4,9,38.2
	c1.4,0.7,6.6,3,13.6,3.6c1.6-0.9,2.7-2.7,0.1-4.9c0,0,0,0-0.1,0c0,0,0,0,0,0c0,0,0,0,0,0c0,0,0,0,0,0c0,0,0,0-0.1,0c0,0,0,0,0,0
	c0,0,0,0-0.1-0.1c0,0,0,0,0,0c0,0,0,0,0,0c0,0,0,0,0,0c0,0,0,0,0,0c0,0,0,0,0,0c0,0,0,0-0.1-0.1c0,0,0,0,0,0c0,0,0,0-0.1-0.1
	c0,0,0,0,0,0c0,0,0,0,0-0.1c0,0,0,0,0,0c0,0-0.1-0.1-0.1-0.1c0,0,0,0,0,0c0,0,0,0,0-0.1c0,0,0,0,0,0c0,0-0.1-0.1-0.1-0.1
	c0,0,0,0,0,0c0,0,0,0,0-0.1c0,0,0,0,0,0c0,0,0,0,0-0.1c0,0,0,0,0,0c-0.4-0.8,0-1.6,2.4-1.8c0.7-0.1,3.1,0.1,2.2-0.8h1.2
	c0.7,0.8,0.7,1.8-2.9,2.2c-0.5,0-0.7,0.3-0.6,0.5c0,0,0,0,0,0c0,0,0,0,0,0c0,0,0,0,0,0c0,0,0,0,0,0c0,0,0,0,0,0c0,0,0,0,0,0
	c0,0,0,0,0,0c0,0,0,0,0,0c0,0,0,0,0,0c0,0,0,0,0,0c0,0,0,0,0,0c0,0,0,0,0,0c0,0,0,0,0,0c0,0,0,0,0,0c0,0,0,0,0,0c0,0,0,0,0,0
	c0,0,0,0,0,0c0,0,0,0,0,0c0,0,0,0,0,0c0,0,0,0,0,0c0,0,0,0,0,0c0,0,0,0,0,0c0,0,0,0,0,0c0,0,0,0,0,0c0,0,0,0,0,0c0,0,0,0,0,0
	c0,0,0,0,0,0c0,0,0.1,0,0.1,0c3.7,0.9,4.6,3.6,4.3,5.5c4.3-0.3,9-1.4,13.7-3.7c0-0.8,0-2.5-0.3-4.8h1.5c0,0.4,0.1,0.8,0.1,1.2
	C44.4,37,44.3,38.6,44.3,38.7z"/>
</svg>
