<?xml version="1.0" encoding="utf-8"?>
<!-- Generator: Adobe Illustrator 21.0.2, SVG Export Plug-In . SVG Version: 6.00 Build 0)  -->
<svg version="1.1" id="Layer_1" xmlns="http://www.w3.org/2000/svg" xmlns:xlink="http://www.w3.org/1999/xlink" x="0px" y="0px"
	 width="52px" height="52px" viewBox="0 0 52 52" enable-background="new 0 0 52 52" xml:space="preserve">
<path fill="#FFFFFF" d="M49.3,23.7L28.6,1.2c-1.4-1.5-3.7-1.5-5.1,0L2.7,23.7c-1.2,1.3-1.2,3.4,0,4.7l20.8,22.5
	c1.4,1.5,3.7,1.5,5.1,0l20.8-22.5C50.5,27.1,50.5,25,49.3,23.7z M26,37.5c-1.7,0-3-1.3-3-3s1.3-3,3-3c1.7,0,3,1.3,3,3
	S27.7,37.5,26,37.5z M29,28.5c0,0.6-0.4,1-1,1h-4c-0.6,0-1-0.4-1-1v-13c0-0.6,0.4-1,1-1h4c0.6,0,1,0.4,1,1V28.5z"/>
</svg>
