<?xml version="1.0" encoding="utf-8"?>
<!-- Generator: Adobe Illustrator 21.0.2, SVG Export Plug-In . SVG Version: 6.00 Build 0)  -->
<svg version="1.1" id="Layer_1" xmlns="http://www.w3.org/2000/svg" xmlns:xlink="http://www.w3.org/1999/xlink" x="0px" y="0px"
	 width="56px" height="64px" viewBox="0 0 56 64" enable-background="new 0 0 56 64" xml:space="preserve">
<path fill="#29B6F2" d="M5.2,0C2.4,0,0.1,2.3,0.1,5.1v53.8c0,2.8,2.3,5.1,5.1,5.1h45.7c2.8,0,5.1-2.3,5.1-5.1V20.3L37.1,0
	C37.1,0,5.2,0,5.2,0z"/>
<path fill="#2987C8" d="M56,20.4v1H43.2c0,0-6.3-1.3-6.1-6.8c0,0,0.2,5.8,6,5.8H56z"/>
<path opacity="0.5" fill="#FFFFFF" enable-background="new    " d="M37.1,0v14.6c0,1.6,1.1,5.8,6.1,5.8H56C56,20.4,37.1,0,37.1,0z"
	/>
<path id="Wordmark-2" fill="#FFFFFF" d="M46.1,53.3c-1.3,0-2.2-0.4-2.6-1.3v5.3h-3.3v-14h3.3v1.3c0.5-1,1.5-1.6,2.6-1.6
	c2.8,0,4.7,2.2,4.7,5.1C50.8,51.1,48.9,53.3,46.1,53.3z M45.4,45.7c-1.4-0.1-2.6,0.9-2.7,2.3c-0.1,1.4,0.9,2.6,2.3,2.7
	c1.4,0.1,2.6-0.9,2.7-2.3c0-0.1,0-0.1,0-0.2C47.8,46.9,46.8,45.8,45.4,45.7C45.5,45.7,45.5,45.7,45.4,45.7L45.4,45.7z M36.4,42
	c-1.1,0-2-0.9-1.9-2c0-1.1,0.9-2,2-1.9c1.1,0,1.9,0.9,1.9,2C38.4,41.1,37.5,42,36.4,42C36.4,42,36.4,42,36.4,42L36.4,42z M31.6,52
	c-0.5,0.4-1.1,0.8-1.7,1c-1.4,0.4-2.9,0.4-4.3,0c-0.6-0.2-1.2-0.5-1.7-1c-0.4-0.4-0.7-0.9-0.9-1.4c-0.2-0.8-0.3-1.6-0.3-2.5v-4.9
	h3.3v5c-0.1,0.6,0.1,1.3,0.4,1.8c0.6,0.7,1.7,0.7,2.4,0.1c0,0,0.1-0.1,0.1-0.1c0.3-0.5,0.5-1.2,0.4-1.8v-5h3.3v4.9
	c0,0.8-0.1,1.7-0.3,2.5C32.3,51.2,32,51.7,31.6,52L31.6,52z M18.8,56l-3.1-3.1c-0.8,0.3-1.7,0.4-2.6,0.4c-4.2,0-7.7-3.4-7.7-7.7
	c0-4.2,3.4-7.7,7.7-7.7s7.7,3.4,7.7,7.7c0,0,0,0,0,0c0,2.2-0.9,4.3-2.5,5.8l2.5,2.5L18.8,56z M17.3,45.7c0-2.4-1.6-4.6-4.2-4.6
	c-2.6,0-4.2,2.2-4.2,4.6c0,2.4,1.6,4.6,4.2,4.6c0.1,0,0.2,0,0.3,0v-1.6h2l0.5,0.5C16.8,48.2,17.3,47,17.3,45.7L17.3,45.7z
	 M38.1,52.7h-3.3v-9.3h3.3V52.7z"/>
</svg>
