<?xml version="1.0" encoding="utf-8"?>
<!-- Generator: Adobe Illustrator 21.0.2, SVG Export Plug-In . SVG Version: 6.00 Build 0)  -->
<svg version="1.1" id="Layer_1" xmlns="http://www.w3.org/2000/svg" xmlns:xlink="http://www.w3.org/1999/xlink" x="0px" y="0px"
	 width="56px" height="64px" viewBox="0 0 56 64" enable-background="new 0 0 56 64" xml:space="preserve">
<g>
	<path fill="#FFFFFF" d="M50.5,63.5h-45c-2.8,0-5-2.2-5-5V5.5c0-2.8,2.2-5,5-5h45c2.8,0,5,2.2,5,5v52.9
		C55.5,61.2,53.3,63.5,50.5,63.5z"/>
	<path fill="#25B4E9" d="M50.5,0h-45C2.5,0,0,2.5,0,5.5v52.9c0,3,2.5,5.5,5.5,5.5h45c3,0,5.5-2.5,5.5-5.5V5.5C56,2.5,53.5,0,50.5,0z
		 M5.5,1h45C53,1,55,3.1,55,5.5v32.7H1V5.5C1,3.1,3,1,5.5,1z"/>
	<g>
		<g>
			<path fill-rule="evenodd" clip-rule="evenodd" fill="#FFFFFF" d="M15.5,43c-4,0-6.4,3-6.4,6.3c0,3.3,2.4,6.3,6.4,6.3
				c0.8,0,1.5-0.1,2.2-0.3l2.1,2.1l1.8-1.8L19.9,54c1.2-1.2,1.9-2.9,1.9-4.6C21.9,46,19.5,43,15.5,43z M18,52l-0.7-0.7h-1.8v1.8h0
				c-2.2,0-3.5-1.8-3.5-3.8s1.3-3.8,3.5-3.8c2.2,0,3.5,1.8,3.5,3.8C19,50.3,18.7,51.3,18,52z M29,51.3c0,0.7-0.1,1.2-0.3,1.5
				c-0.2,0.3-0.7,0.5-1.2,0.5c-0.5,0-1-0.2-1.2-0.5C26.1,52.5,26,52,26,51.3v-4.2h-2.6v4.1c0,0.9,0.1,1.6,0.2,2.1
				c0.1,0.5,0.4,0.9,0.8,1.2c0.4,0.4,0.8,0.6,1.4,0.8c0.5,0.2,1.1,0.3,1.8,0.3c0.7,0,1.2-0.1,1.8-0.3c0.5-0.2,1-0.5,1.4-0.8
				c0.4-0.3,0.6-0.7,0.8-1.2c0.1-0.5,0.2-1.1,0.2-2.1v-4.1H29V51.3z M33.3,55.3H36v-8.3h-2.6V55.3z M42.8,46.8
				c-1.1,0-2.2,0.6-2.6,1.4v-1.2h-2.6l0,12l2.6,0v-4.9c0.4,0.8,1.5,1.4,2.6,1.4c2.4,0,4-1.9,4-4.3C46.8,48.7,45.2,46.8,42.8,46.8z
				 M42.3,53.3c-1.2,0-2-1-2-2.1s0.8-2.1,2-2.1c1.2,0,2,1,2,2.1S43.4,53.3,42.3,53.3z M34.6,42.6c-0.9,0-1.7,0.7-1.7,1.7
				c0,0.9,0.7,1.7,1.7,1.7c1,0,1.7-0.8,1.7-1.7C36.3,43.4,35.6,42.6,34.6,42.6z"/>
		</g>
	</g>
	<g>
		<g>
			<path fill="#25B4E9" d="M37.9,19.6c-1.4-0.5-1.6-1.1-1.6-1.6c0-0.5,0.4-1.1,0.9-1.5c0.8-0.7,1.3-1.7,1.3-2.9c0-2.2-1.4-4.1-4-4.1
				c-2.3,0-3.7,1.6-3.9,3.5c0,0.2,0.1,0.3,0.2,0.4c1.9,1.2,3,3.3,3,5.8c0,1.9-0.7,3.6-2.1,4.8c-0.1,0.1-0.1,0.3,0,0.4
				c0.3,0.2,1.1,0.6,1.6,0.8c0.1,0,0.2,0.1,0.4,0.1h6c1.1,0,2-0.9,2-2v-0.3C41.9,21.3,40,20.4,37.9,19.6z M31.3,26.5
				c-1.7-0.7-1.9-1.3-1.9-1.9c0-0.6,0.5-1.3,1-1.8c1-0.8,1.5-2,1.5-3.4c0-2.6-1.7-4.8-4.8-4.8c-3,0-4.8,2.2-4.8,4.8
				c0,1.4,0.5,2.6,1.5,3.4c0.5,0.5,1,1.1,1,1.8s-0.2,1.3-2,1.9c-2.5,1-4.9,2.1-4.9,4.2v0.6c0,1.1,0.9,2,2,2h13.8
				c1.1,0,2.1-0.9,2.1-2v-0.7C35.9,28.6,33.7,27.5,31.3,26.5z"/>
		</g>
		<rect x="24.4" y="6.2" fill="#25B4E9" width="1" height="5"/>
		<rect x="14.1" y="19" fill="#25B4E9" width="5" height="1"/>
		<rect x="18.2" y="10.1" transform="matrix(0.5611 -0.8278 0.8278 0.5611 -2.2597 21.0216)" fill="#25B4E9" width="1" height="5"/>
	</g>
</g>
</svg>
