<?xml version="1.0" encoding="utf-8"?>
<!-- Generator: Adobe Illustrator 21.0.2, SVG Export Plug-In . SVG Version: 6.00 Build 0)  -->
<svg version="1.1" id="Layer_1" xmlns="http://www.w3.org/2000/svg" xmlns:xlink="http://www.w3.org/1999/xlink" x="0px" y="0px"
	 width="56px" height="64px" viewBox="0 0 56 64" enable-background="new 0 0 56 64" xml:space="preserve">
<path fill="#30C85A" d="M5.2,0C2.4,0,0.1,2.3,0.1,5.1v53.8c0,2.8,2.3,5.1,5.1,5.1h45.7c2.8,0,5.1-2.3,5.1-5.1V20.3L37.1,0H5.2z"/>
<path fill="#2AA848" d="M56,20.4v1H43.2c0,0-6.3-1.3-6.1-6.8c0,0,0.2,5.8,6,5.8H56z"/>
<path opacity="0.5" fill="#FFFFFF" enable-background="new    " d="M37.1,0v14.6c0,1.6,1.1,5.8,6.1,5.8H56C56,20.4,37.1,0,37.1,0z"
	/>
<path fill="#FFFFFF" d="M20.7,45.5c0-3.9-2.8-7.5-7.6-7.5c-4.8,0-7.7,3.6-7.7,7.6s2.9,7.6,7.7,7.6c0.9,0,1.8-0.1,2.6-0.4l2.5,2.5
	l2.2-2.2l-2-2C19.9,49.7,20.7,47.6,20.7,45.5z M16.1,48.9L15.2,48H13v2.2c-2.6,0-4.2-2.2-4.2-4.6c0-2.4,1.6-4.6,4.2-4.6
	s4.2,2.2,4.2,4.6C17.3,46.8,16.9,48,16.1,48.9z"/>
<path fill="#FFFFFF" d="M27.5,50.4c-0.6,0-1.1-0.2-1.4-0.6c-0.3-0.4-0.4-1-0.4-1.8v-5.1h-3.1v5c0,1.1,0.1,2,0.3,2.5
	c0.2,0.5,0.5,1,0.9,1.4c0.5,0.4,1,0.8,1.7,1c0.6,0.2,1.3,0.3,2.1,0.3s1.5-0.1,2.1-0.3c0.7-0.2,1.2-0.6,1.7-1
	c0.4-0.4,0.7-0.9,0.9-1.4c0.2-0.5,0.3-1.4,0.3-2.5v-5h-3.1V48c0,0.8-0.1,1.4-0.4,1.8c-0.3,0.4-0.8,0.6-1.4,0.6H27.5z"/>
<rect x="34.5" y="42.8" fill="#FFFFFF" width="3.1" height="10"/>
<path fill="#FFFFFF" d="M45.9,42.6c-1.3,0-2.6,0.8-3.1,1.7v-1.4h-3.1v14.5h3.1v-6c0.5,0.9,1.8,1.7,3.1,1.7c2.9,0,4.9-2.3,4.9-5.2
	C50.8,45,48.8,42.6,45.9,42.6z M45.3,50.4c-1.4,0-2.4-1.2-2.4-2.5c0-1.4,1-2.5,2.4-2.5c1.4,0,2.4,1.2,2.4,2.5
	C47.6,49.2,46.7,50.4,45.3,50.4z"/>
<path fill="#FFFFFF" d="M36.1,37.6c-1.1,0-2,0.9-2,2s0.9,2,2,2c1.2,0,2.1-0.9,2.1-2C38.1,38.5,37.3,37.6,36.1,37.6z"/>
</svg>
