<?xml version="1.0" encoding="utf-8"?>
<!-- Generator: Adobe Illustrator 21.0.2, SVG Export Plug-In . SVG Version: 6.00 Build 0)  -->
<svg version="1.1" id="Layer_1" xmlns="http://www.w3.org/2000/svg" xmlns:xlink="http://www.w3.org/1999/xlink" x="0px" y="0px"
	 width="56px" height="64px" viewBox="0 0 56 64" enable-background="new 0 0 56 64" xml:space="preserve">
<path fill="#30C85A" d="M51,55.3H5c-2.8,0-5-2.2-5-5V13.7c0-2.8,2.2-5,5-5h46c2.8,0,5,2.2,5,5v36.7C56,53.1,53.7,55.3,51,55.3z"/>
<path opacity="0.5" fill="#FFFFFF" d="M0,21.5v-7.8c0-2.8,2.2-5,5-5h46c2.8,0,5,2.2,5,5v7.8H0z"/>
<rect x="0" y="21.5" fill="#2AA848" width="56" height="1"/>
<path id="Wordmark-2_1_" fill="#FFFFFF" d="M46.1,43.8c-1.3,0-2.2-0.4-2.6-1.3v5.3h-3.3v-14h3.3v1.3c0.5-1,1.5-1.6,2.6-1.6
	c2.8,0,4.7,2.2,4.7,5.1S48.9,43.8,46.1,43.8z M45.4,36.2c-1.4-0.1-2.6,0.9-2.7,2.3c-0.1,1.4,0.9,2.6,2.3,2.7
	c1.4,0.1,2.6-0.9,2.7-2.3c0-0.1,0-0.1,0-0.2C47.8,37.4,46.8,36.2,45.4,36.2C45.5,36.2,45.5,36.2,45.4,36.2L45.4,36.2z M36.4,32.4
	c-1.1,0-2-0.9-1.9-2c0-1.1,0.9-2,2-1.9c1.1,0,1.9,0.9,1.9,2C38.4,31.5,37.5,32.4,36.4,32.4C36.4,32.4,36.4,32.4,36.4,32.4L36.4,32.4
	z M31.6,42.5c-0.5,0.4-1.1,0.8-1.7,1c-1.4,0.4-2.9,0.4-4.3,0c-0.6-0.2-1.2-0.5-1.7-1c-0.4-0.4-0.7-0.9-0.9-1.4
	c-0.2-0.8-0.3-1.6-0.3-2.5v-4.9h3.3v5c-0.1,0.6,0.1,1.3,0.4,1.8c0.6,0.7,1.7,0.7,2.4,0.1c0,0,0.1-0.1,0.1-0.1
	c0.3-0.5,0.5-1.2,0.4-1.8v-5h3.3v4.9c0,0.8-0.1,1.7-0.3,2.5C32.3,41.6,32,42.1,31.6,42.5L31.6,42.5z M18.8,46.5l-3.1-3.1
	c-0.8,0.3-1.7,0.4-2.6,0.4c-4.2,0-7.7-3.4-7.7-7.7c0-4.2,3.4-7.7,7.7-7.7s7.7,3.4,7.7,7.7c0,0,0,0,0,0c0,2.2-0.9,4.3-2.5,5.8
	l2.5,2.5L18.8,46.5z M17.3,36.1c0-2.4-1.6-4.6-4.2-4.6c-2.6,0-4.2,2.2-4.2,4.6c0,2.4,1.6,4.6,4.2,4.6c0.1,0,0.2,0,0.3,0v-1.6h2
	l0.5,0.5C16.8,38.7,17.3,37.4,17.3,36.1L17.3,36.1z M38.1,43.1h-3.3v-9.3h3.3V43.1z"/>
</svg>
